<svg width="39" height="36" viewBox="0 0 39 36" fill="none" xmlns="http://www.w3.org/2000/svg">
<path d="M17.4544 31.8168L17.453 31.8155C12.6047 27.4191 8.66166 23.8416 5.91858 20.488C3.18699 17.1483 1.75 14.1528 1.75 10.9375C1.75 5.71479 5.83979 1.625 11.0625 1.625C14.0222 1.625 16.8785 3.00769 18.7386 5.19209L19.5 6.08615L20.2614 5.19209C22.1215 3.00769 24.9778 1.625 27.9375 1.625C33.1602 1.625 37.25 5.71479 37.25 10.9375C37.25 14.1528 35.813 17.1484 33.0812 20.4906C30.3418 23.8421 26.4058 27.4188 21.5667 31.8163L21.5484 31.833L21.5462 31.8349L19.5026 33.6813L17.4544 31.8168Z" stroke="#2C2C2C" stroke-width="2"/>
</svg>
