<svg width="40" height="39" viewBox="0 0 40 39" fill="none" xmlns="http://www.w3.org/2000/svg">
<path d="M9.72503 16.8L11.7125 14.8125L9.72503 12.825L11.7125 10.8375L15.6875 14.8125L11.7125 18.7875L9.72503 16.8ZM4.43752 13.875C4.49377 13.875 4.53127 13.8938 4.58752 13.8938C6.81877 8.38125 12.2 4.5 18.5 4.5C22.6063 4.5 26.3 6.15 29.0188 8.8125C29.3 7.6875 29.8625 6.39375 30.5375 5.1375C27.275 2.4 23.075 0.75 18.4813 0.75C9.33127 0.75 1.71877 7.33125 0.0875244 16.0125C1.13752 14.7 2.73127 13.875 4.43752 13.875ZM35.375 16.6875C34.5875 16.6875 33.8375 16.5187 33.1438 16.275C33.3688 17.3062 33.5 18.3937 33.5 19.5C33.5 27.7875 26.7875 34.5 18.5 34.5C12.2 34.5 6.81877 30.6187 4.58752 25.1062C4.53127 25.1062 4.49377 25.125 4.43752 25.125C3.46252 25.125 2.48752 24.8625 1.62502 24.375C1.02502 24.0375 0.518774 23.5875 0.0875244 23.0625C1.75627 31.7062 9.33127 38.25 18.4625 38.25C28.85 38.25 37.25 29.85 37.25 19.5C37.25 18.4688 37.1375 17.4562 36.9875 16.4625C36.4625 16.5938 35.9375 16.6875 35.375 16.6875ZM35.375 2.625C35.375 2.625 31.625 8.0625 31.625 10.125C31.625 12.1875 33.3125 13.875 35.375 13.875C37.4375 13.875 39.125 12.1875 39.125 10.125C39.125 8.0625 35.375 2.625 35.375 2.625ZM25.2875 10.8375L21.3125 14.8125L25.2875 18.7875L27.275 16.8L25.2875 14.8125L27.275 12.825L25.2875 10.8375ZM12.05 28.875C13.3438 26.6437 15.7438 25.125 18.5 25.125C21.2563 25.125 23.6563 26.6437 24.95 28.875H28.1C26.6 25.0312 22.8688 22.3125 18.5 22.3125C16.8688 22.3125 15.3125 22.6875 13.9438 23.3812L7.23127 19.5C7.23127 18.525 6.74377 17.5875 5.84377 17.0812C4.49377 16.3125 2.78752 16.7625 2.00002 18.1125C1.23127 19.4625 1.68127 21.1688 3.03127 21.9563C3.93127 22.4813 5.00002 22.425 5.82502 21.9563L11.3938 25.1812C10.325 26.175 9.46252 27.45 8.90002 28.875H12.05Z" fill="#2C2C2C"/>
</svg>
