<svg width="238" height="377" viewBox="0 0 238 377" fill="none" xmlns="http://www.w3.org/2000/svg">
<path d="M52.1488 31.7621C51.6595 49.0308 42.8733 65.1689 39 70H187C176.726 62.5991 170.182 40.7048 170.793 31.7621C170.793 14.2204 156.573 0 139.031 0H83.9109C66.3691 0 52.1488 14.2204 52.1488 31.7621Z" fill="#CACACA"/>
<path d="M52.7963 345.504C52.3058 328.38 42.8834 307.791 39 303H188C177.699 310.339 171.138 336.636 171.751 345.504C171.751 362.899 157.65 377 140.255 377H84.2922C66.8975 377 52.7963 362.899 52.7963 345.504Z" fill="#CACACA"/>
<rect y="54.5204" width="226.226" height="264.763" rx="88.5409" fill="#AEB4BF"/>
<path d="M225 130H226.932C233.045 130 238 134.955 238 141.068V167.932C238 174.045 233.045 179 226.932 179H225V130Z" fill="#AEB4BF"/>
<rect x="9.99109" y="64.5116" width="206.244" height="244.781" rx="76.3665" fill="#19194A"/>
<rect opacity="0.7" x="23.5503" y="78.0706" width="179.125" height="217.662" rx="54.2313" fill="#F2F4FC" fill-opacity="0.14"/>
<circle cx="58.5189" cy="258.623" r="22.8367" fill="#F2F4FC" fill-opacity="0.3"/>
<circle cx="113.47" cy="258.623" r="22.8367" fill="#F2F4FC" fill-opacity="0.3"/>
<circle cx="168.42" cy="258.623" r="22.8367" fill="#F2F4FC" fill-opacity="0.3"/>
<rect x="23.5502" y="161.567" width="179.125" height="56.378" fill="#F2F4FC" fill-opacity="0.14"/>
<rect opacity="0.4" x="63.5145" y="108.758" width="99.1968" height="36.3959" fill="#FDFDFF"/>
<rect x="83.4965" y="86.6345" width="59.2326" height="17.8411" fill="#96C836"/>
<rect x="104.192" y="249.346" width="17.8411" height="17.8411" rx="5.53381" fill="#96C836"/>
<line x1="62.0872" y1="188.396" x2="164.139" y2="188.396" stroke="#96C836" stroke-width="17.7082"/>
</svg>
