<svg width="39" height="39" viewBox="0 0 39 39" fill="none" xmlns="http://www.w3.org/2000/svg">
<path d="M14.8125 19.5C14.8125 20.5312 13.9688 21.375 12.9375 21.375C11.9062 21.375 11.0625 20.5312 11.0625 19.5C11.0625 18.4688 11.9062 17.625 12.9375 17.625C13.9688 17.625 14.8125 18.4688 14.8125 19.5ZM22.7812 15.75C23.8125 15.75 24.6562 14.9062 24.6562 13.875C24.6562 12.8438 23.8125 12 22.7812 12C21.75 12 20.9062 12.8438 20.9062 13.875C20.9062 14.9062 21.75 15.75 22.7812 15.75ZM16.2188 15.75C17.25 15.75 18.0938 14.9062 18.0938 13.875C18.0938 12.8438 17.25 12 16.2188 12C15.1875 12 14.3438 12.8438 14.3438 13.875C14.3438 14.9062 15.1875 15.75 16.2188 15.75ZM16.2188 23.25C15.1875 23.25 14.3438 24.0938 14.3438 25.125C14.3438 26.1562 15.1875 27 16.2188 27C17.25 27 18.0938 26.1562 18.0938 25.125C18.0938 24.0938 17.25 23.25 16.2188 23.25ZM38.25 18.0938V20.9062C38.25 21.675 37.6125 22.3125 36.8438 22.3125C36.075 22.3125 35.4375 21.675 35.4375 20.9062H32.55C32.2687 23.475 31.2563 25.8375 29.7 27.75L31.7438 29.7937L31.7625 29.775C32.3063 29.2312 33.2062 29.2312 33.75 29.775C34.2938 30.3187 34.2938 31.2188 33.75 31.7625L31.7625 33.75C31.2188 34.2938 30.3187 34.2938 29.775 33.75C29.2312 33.2062 29.2312 32.325 29.7562 31.7812L27.7125 29.7375C25.8 31.275 23.4562 32.2875 20.8875 32.5687V35.4562H20.9062C21.675 35.4562 22.3125 36.0938 22.3125 36.8625C22.3125 37.6313 21.675 38.2687 20.9062 38.2687H18.0938C17.325 38.2687 16.6875 37.6313 16.6875 36.8625C16.6875 36.0938 17.3062 35.475 18.075 35.4562V32.55C15.5062 32.2687 13.1625 31.2563 11.2688 29.7188L9.225 31.7625L9.24375 31.7812C9.7875 32.325 9.7875 33.225 9.24375 33.7688C8.7 34.3125 7.8 34.3125 7.25625 33.7688L5.25 31.7625C4.70625 31.2188 4.70625 30.3187 5.25 29.775C5.79375 29.2312 6.675 29.2312 7.21875 29.7562L9.2625 27.7125C7.725 25.8 6.7125 23.475 6.45 20.9062H3.5625C3.5625 21.675 2.925 22.3125 2.15625 22.3125C1.3875 22.3125 0.75 21.675 0.75 20.9062V18.0938C0.75 17.325 1.3875 16.6875 2.15625 16.6875C2.925 16.6875 3.5625 17.325 3.5625 18.0938H6.45C6.73125 15.525 7.74375 13.2 9.2625 11.2875L7.21875 9.24375C6.675 9.76875 5.79375 9.76875 5.25 9.225C4.70625 8.68125 4.70625 7.78125 5.25 7.2375L7.2375 5.25C7.78125 4.70625 8.68125 4.70625 9.225 5.25C9.76875 5.79375 9.76875 6.69375 9.225 7.2375L9.20625 7.25625L11.25 9.3C13.1625 7.7625 15.4875 6.75 18.0562 6.46875V3.5625C17.2875 3.54375 16.6687 2.925 16.6687 2.15625C16.6875 1.3875 17.325 0.75 18.0938 0.75H20.9062C21.675 0.75 22.3125 1.3875 22.3125 2.15625C22.3125 2.925 21.675 3.5625 20.9062 3.5625H20.8875V6.45C23.4562 6.7125 25.8 7.74375 27.7125 9.28125L29.7562 7.2375C29.2125 6.69375 29.2312 5.8125 29.775 5.26875C30.3187 4.725 31.2188 4.725 31.7625 5.26875L33.75 7.25625C34.2938 7.8 34.2938 8.7 33.75 9.24375C33.2062 9.7875 32.3063 9.7875 31.7625 9.24375L31.7438 9.225L29.7 11.25C31.2375 13.1625 32.2687 15.5063 32.55 18.0938H35.4375C35.4375 17.325 36.075 16.6875 36.8438 16.6875C37.6125 16.6875 38.25 17.325 38.25 18.0938ZM28.875 19.5C28.875 14.325 24.675 10.125 19.5 10.125C14.325 10.125 10.125 14.325 10.125 19.5C10.125 24.675 14.325 28.875 19.5 28.875C24.675 28.875 28.875 24.675 28.875 19.5ZM19.5 17.625C18.4688 17.625 17.625 18.4688 17.625 19.5C17.625 20.5312 18.4688 21.375 19.5 21.375C20.5312 21.375 21.375 20.5312 21.375 19.5C21.375 18.4688 20.5312 17.625 19.5 17.625ZM26.0625 17.625C25.0312 17.625 24.1875 18.4688 24.1875 19.5C24.1875 20.5312 25.0312 21.375 26.0625 21.375C27.0938 21.375 27.9375 20.5312 27.9375 19.5C27.9375 18.4688 27.0938 17.625 26.0625 17.625ZM22.7812 23.25C21.75 23.25 20.9062 24.0938 20.9062 25.125C20.9062 26.1562 21.75 27 22.7812 27C23.8125 27 24.6562 26.1562 24.6562 25.125C24.6562 24.0938 23.8125 23.25 22.7812 23.25Z" fill="#2C2C2C"/>
</svg>
