<svg width="16" height="16" viewBox="0 0 16 16" fill="none" xmlns="http://www.w3.org/2000/svg">
<path d="M16 2.87234C15.405 3.13334 14.771 3.30634 14.11 3.39034C14.79 2.98434 15.309 2.34634 15.553 1.57734C14.919 1.95534 14.219 2.22234 13.473 2.37134C12.871 1.73034 12.013 1.33334 11.077 1.33334C9.261 1.33334 7.799 2.80734 7.799 4.61434C7.799 4.87434 7.821 5.12434 7.875 5.36234C5.148 5.22934 2.735 3.92234 1.114 1.93134C0.831 2.42234 0.665 2.98434 0.665 3.58934C0.665 4.72534 1.25 5.73234 2.122 6.31534C1.595 6.30534 1.078 6.15234 0.64 5.91134C0.64 5.92134 0.64 5.93434 0.64 5.94734C0.64 7.54134 1.777 8.86534 3.268 9.17034C3.001 9.24334 2.71 9.27834 2.408 9.27834C2.198 9.27834 1.986 9.26634 1.787 9.22234C2.212 10.5213 3.418 11.4763 4.852 11.5073C3.736 12.3803 2.319 12.9063 0.785 12.9063C0.516 12.9063 0.258 12.8943 0 12.8613C1.453 13.7983 3.175 14.3333 5.032 14.3333C11.068 14.3333 14.368 9.33334 14.368 4.99934C14.368 4.85434 14.363 4.71434 14.356 4.57534C15.007 4.11334 15.554 3.53634 16 2.87234Z" fill="#FDFDFF"/>
</svg>
