<svg width="280" height="441" viewBox="0 0 280 441" fill="none" xmlns="http://www.w3.org/2000/svg">
<path d="M58.7025 39.9295C58.081 61.6388 46.9201 81.9266 42 88H230C216.949 78.696 208.636 51.1718 209.413 39.9295C209.413 17.8771 191.536 0 169.484 0H98.632C76.5795 0 58.7025 17.8771 58.7025 39.9295Z" fill="#CACACA"/>
<path d="M63.4815 403.545C62.8955 383.182 51.6392 358.697 47 353H225C212.694 361.727 204.856 393 205.588 403.545C205.588 424.231 188.819 441 168.134 441H100.936C80.2505 441 63.4815 424.231 63.4815 403.545Z" fill="#CACACA"/>
<rect x="0.493774" y="64.1638" width="267.296" height="312.83" rx="104.615" fill="#AEB4BF"/>
<path d="M266 149H266.923C274.145 149 280 154.855 280 162.077V190.923C280 198.145 274.145 204 266.923 204H266V149Z" fill="#AEB4BF"/>
<rect x="12.2988" y="75.9688" width="243.687" height="289.22" rx="90.2307" fill="#19194A"/>
<rect opacity="0.7" x="28.3259" y="91.7561" width="211.645" height="257.178" rx="64.0769" fill="#F2F4FC" fill-opacity="0.14"/>
<circle cx="62.3434" cy="122.343" r="15.3434" fill="#F2F4FC" fill-opacity="0.3"/>
<circle cx="204.343" cy="315.343" r="15.3434" fill="#F2F4FC" fill-opacity="0.3"/>
<circle cx="209.991" cy="119.991" r="9.99104" fill="#F2F4FC" fill-opacity="0.3"/>
<circle cx="56.991" cy="319.991" r="9.99104" fill="#F2F4FC" fill-opacity="0.3"/>
<circle cx="133.946" cy="220.926" r="96.3422" fill="#F2F4FC" fill-opacity="0.14"/>
<circle cx="134.302" cy="172.755" r="25.1016" stroke="#F2F4FC" stroke-opacity="0.14" stroke-width="3.32028"/>
<circle cx="134.302" cy="269.097" r="25.1016" stroke="#F2F4FC" stroke-opacity="0.14" stroke-width="3.32028"/>
<circle cx="86.4882" cy="214.86" r="25.1016" stroke="#F2F4FC" stroke-opacity="0.14" stroke-width="3.32028"/>
<circle cx="182.83" cy="214.86" r="25.1016" stroke="#F2F4FC" stroke-opacity="0.14" stroke-width="3.32028"/>
<circle cx="133.946" cy="220.926" r="7.13646" fill="#F2F4FC" fill-opacity="0.3"/>
<rect x="205.566" y="171.126" width="8.09805" height="69.0698" rx="4.04902" transform="rotate(56.9674 205.566 171.126)" fill="#636381" stroke="#96C836" stroke-width="3.32028"/>
<path d="M139.655 218.785L150.36 212.362" stroke="#96C836" stroke-width="3.32028"/>
<rect x="0.310225" y="2.32721" width="8.09805" height="44.4843" rx="4.04902" transform="matrix(-0.607473 0.79434 0.79434 0.607473 87.3527 179.249)" fill="#636381" stroke="#96C836" stroke-width="3.32028"/>
<path d="M131.568 218.521L121.384 211.3" stroke="#96C836" stroke-width="3.32028"/>
<circle cx="134.136" cy="221.136" r="7.13646" fill="#96C836"/>
<line x1="134.892" y1="208.313" x2="134.892" y2="308.471" stroke="#96C836" stroke-width="3.32028" stroke-linecap="round"/>
</svg>
